PathFileType	4	(X/Y/Z)	C:/Users/opensim2020/Desktop/walking_exp_matlab/subject03_walking08_straight_02.trc																																																																																																																																																							
DataRate	CameraRate	NumFrames	NumMarkers	Units	OrigDataRate	OrigDataStartFrame	OrigNumFrames																																																																																																																																																			
100	100	6	51	mm	100	1553	314																																																																																																																																																			
Frame#	Time	LFHD			RFHD			LBHD			RBHD			C7			T10			CLAV			STRN			RBAK			LSHO			LUPA			LELB			LFRM			LWRA			LWRB			LFIN			RSHO			RUPA			RELB			RFRM			RWRA			RWRB			RFIN			LASI			RASI			LPSI			RPSI			LTHI			LKNE			LTIB			LANK			LHEE			LTOE			RTHI			RKNE			RTIB			RANK			RHEE			RTOE			*39			*40			*41			*42			*43			*44			*45			*46			*47			*48			*49			*50		
		X1	Y1	Z1	X2	Y2	Z2	X3	Y3	Z3	X4	Y4	Z4	X5	Y5	Z5	X6	Y6	Z6	X7	Y7	Z7	X8	Y8	Z8	X9	Y9	Z9	X10	Y10	Z10	X11	Y11	Z11	X12	Y12	Z12	X13	Y13	Z13	X14	Y14	Z14	X15	Y15	Z15	X16	Y16	Z16	X17	Y17	Z17	X18	Y18	Z18	X19	Y19	Z19	X20	Y20	Z20	X21	Y21	Z21	X22	Y22	Z22	X23	Y23	Z23	X24	Y24	Z24	X25	Y25	Z25	X26	Y26	Z26	X27	Y27	Z27	X28	Y28	Z28	X29	Y29	Z29	X30	Y30	Z30	X31	Y31	Z31	X32	Y32	Z32	X33	Y33	Z33	X34	Y34	Z34	X35	Y35	Z35	X36	Y36	Z36	X37	Y37	Z37	X38	Y38	Z38	X39	Y39	Z39	X40	Y40	Z40	X41	Y41	Z41	X42	Y42	Z42	X43	Y43	Z43	X44	Y44	Z44	X45	Y45	Z45	X46	Y46	Z46	X47	Y47	Z47	X48	Y48	Z48	X49	Y49	Z49	X50	Y50	Z50	X51	Y51	Z51
																																																																																																																																																										
1	0	-1203.15198	1618.38794	-1529.48767	-1221.53271	1629.42334	-1398.27979	-1328.15308	1567.16748	-1539.53247	-1341.44604	1578.05786	-1409.71887	-1356.04431	1417.62488	-1485.14148	-1399.67627	1107.42932	-1495.29749	-1238.05188	1336.98914	-1467.51599	-1198.9552	1170.28674	-1474.67712	-1428.37915	1242.09119	-1406.14343	-1252.40674	1380.42249	-1624.91992	-1218.52551	1193.34619	-1704.90027	-1182.80066	1076.71204	-1720.03186	-1119.37622	964.2124	-1708.927	-1070.46204	859.47955	-1668.50281	-1081.45349	857.46887	-1723.31409	-1038.42737	786.97369	-1706.71521	-1306.90759	1355.29041	-1316.07568	-1324.95422	1131.71826	-1248.28174	-1312.83557	1019.54706	-1235.59375	-1296.55957	883.41425	-1235.21094	-1263.13989	789.49054	-1269.8667	-1299.06726	782.88403	-1229.8252	-1274.16479	713.07922	-1238.44202	-1232.21057	939.71838	-1602.80701	-1246.0509	936.47797	-1363.48303	-1395.64087	969.27979	-1559.62207	-1404.11243	967.60272	-1411.1908	-1313.48608	642.03339	-1638.46741	-1333.47351	465.17529	-1598.46094	-1405.79333	282.2648	-1602.9707	-1450.30261	75.84945	-1561.71704	-1493.0625	41.02045	-1526.30481	-1299.29578	35.36423	-1537.2738	-1230.84375	647.76013	-1317.96948	-1152.90125	486.12259	-1354.0155	-1186.99524	298.74875	-1352.59827	-1209.75061	84.27486	-1398.05957	-1251.89124	51.18951	-1452.06091	-1073.83325	46.35772	-1411.35706	-1294.65979	1677.14307	-1493.97888	NaN	NaN	NaN	NaN	NaN	NaN	NaN	NaN	NaN	NaN	NaN	NaN	NaN	NaN	NaN	NaN	NaN	NaN	NaN	NaN	NaN	NaN	NaN	NaN	NaN	NaN	NaN	NaN	NaN	NaN	NaN	NaN	NaN
2	0.01	-1195.75732	1617.06909	-1530.07764	-1214.22107	1628.57495	-1398.95117	-1320.62354	1565.56067	-1539.83228	-1333.9054	1576.88318	-1410.06726	-1348.27051	1416.65515	-1485.30237	-1392.65186	1106.51453	-1495.18787	-1230.46655	1335.70605	-1467.59412	-1191.75012	1168.94861	-1474.97693	-1421.08569	1241.32825	-1406.26074	-1244.53625	1379.33997	-1624.86426	-1210.30396	1192.50891	-1704.83533	-1174.27527	1075.97681	-1719.875	-1110.11462	964.15094	-1708.10425	-1060.85815	860.09576	-1667.04895	-1071.08313	857.66663	-1721.76917	-1027.62854	787.81311	-1704.66919	-1299.40613	1353.9447	-1316.18494	-1318.47766	1130.42761	-1248.91028	-1306.70459	1018.09711	-1236.58105	-1290.38147	881.99176	-1236.62817	-1257.02197	788.06342	-1271.92151	-1293.03564	781.41095	-1231.66931	-1267.79309	711.7262	-1240.19653	-1225.58386	938.81366	-1603.30603	-1238.68665	935.3006	-1363.70105	-1388.7677	968.1214	-1559.57715	-1396.95972	966.22729	-1411.26123	-1308.35559	641.32733	-1638.54626	-1329.82605	464.72684	-1598.87244	-1403.79382	282.43494	-1603.30237	-1450.13403	76.29496	-1561.94104	-1493.05566	41.59066	-1526.36353	-1299.28662	35.29719	-1537.33899	-1225.16663	645.94324	-1318.39478	-1145.42712	485.18323	-1354.82678	-1172.24658	297.24176	-1352.66101	-1184.85681	81.46538	-1397.49841	-1225.67969	47.3885	-1451.5863	-1047.57568	47.48564	-1410.48303	-1287.38904	1675.776	-1494.70923	NaN	NaN	NaN	NaN	NaN	NaN	NaN	NaN	NaN	NaN	NaN	NaN	NaN	NaN	NaN	NaN	NaN	NaN	NaN	NaN	NaN	NaN	NaN	NaN	NaN	NaN	NaN	NaN	NaN	NaN	NaN	NaN	NaN
3	0.02	-1188.29504	1615.77686	-1530.64648	-1206.69116	1627.55652	-1399.46326	-1313.06689	1563.99854	-1540.15649	-1326.42188	1575.68115	-1410.50415	-1340.51355	1415.6394	-1485.34448	-1385.57813	1105.58093	-1495.05725	-1222.86072	1334.50317	-1467.72034	-1184.67139	1167.49097	-1475.27258	-1413.70178	1240.57385	-1406.29016	-1236.83447	1378.24292	-1624.86597	-1202.25391	1191.58093	-1704.78821	-1165.96777	1075.13647	-1719.70618	-1101.08533	963.89966	-1707.20227	-1051.20654	860.45728	-1665.54395	-1061.06836	857.68469	-1720.14648	-1016.79309	788.44263	-1702.4657	-1291.67725	1352.67383	-1316.26501	-1311.71521	1129.06738	-1249.5376	-1300.36304	1016.66321	-1237.52515	-1284.35132	880.76392	-1238.09412	-1250.58899	786.62323	-1273.78699	-1286.71704	779.88892	-1233.63586	-1261.41809	710.41345	-1242.76392	-1218.69556	937.7981	-1603.45227	-1231.38574	933.89636	-1363.84985	-1381.87195	967.00238	-1559.55652	-1389.70984	964.76617	-1411.20508	-1303.08142	640.56458	-1638.72351	-1325.95129	464.13245	-1599.17468	-1401.74976	282.40088	-1603.4657	-1450.03821	76.91057	-1562.18408	-1493.00708	42.28964	-1526.34753	-1299.27429	35.25491	-1537.40454	-1219.65784	644.13922	-1318.54126	-1137.97083	484.09283	-1355.44653	-1157.84851	295.87717	-1352.63184	-1160.66357	79.48703	-1396.47266	-1199.94336	44.35526	-1450.75403	-1021.85535	48.99014	-1409.45581	-1280.06409	1674.37952	-1495.45459	NaN	NaN	NaN	NaN	NaN	NaN	NaN	NaN	NaN	NaN	NaN	NaN	NaN	NaN	NaN	NaN	NaN	NaN	NaN	NaN	NaN	NaN	NaN	NaN	NaN	NaN	NaN	NaN	NaN	NaN	NaN	NaN	NaN
4	0.03	-1180.74463	1614.48462	-1531.11572	-1199.05774	1626.53137	-1399.97278	-1305.42419	1562.41699	-1540.34216	-1318.49231	1574.34741	-1410.63806	-1332.70862	1414.57092	-1485.36475	-1378.44202	1104.59021	-1494.83618	-1215.1062	1333.17529	-1467.82166	-1177.26575	1166.17297	-1475.41272	-1406.21179	1239.73523	-1406.17151	-1229.05554	1377.0116	-1624.85913	-1194.32251	1190.4834	-1704.61072	-1157.99048	1074.19507	-1719.4093	-1092.24329	963.45087	-1706.27515	-1041.62415	860.71637	-1663.97803	-1051.50696	857.67157	-1718.68994	-1006.40991	788.8114	-1700.35815	-1283.79053	1351.37268	-1316.25183	-1304.58411	1127.81018	-1250.14624	-1293.82715	1015.31128	-1238.50562	-1277.71021	879.01178	-1239.83679	-1244.27551	785.58466	-1275.46252	-1280.33716	778.51758	-1235.62122	-1254.96851	708.96442	-1244.9762	-1211.75305	936.8418	-1603.85962	-1223.89844	932.45917	-1363.97351	-1374.98035	965.81171	-1559.38416	-1382.3396	963.31677	-1411.0376	-1297.66748	639.83057	-1638.85742	-1322.04163	463.67117	-1599.53418	-1399.66699	282.56067	-1603.56787	-1449.66235	77.15028	-1561.99243	-1492.93628	43.11386	-1526.29211	-1299.26526	35.14994	-1537.43188	-1213.97827	642.27332	-1318.61157	-1130.94397	482.88013	-1356.12537	-1143.90344	294.69138	-1352.51233	-1136.85742	78.16499	-1395.54504	-1174.7251	42.18689	-1450.11047	-996.89075	51.02597	-1408.39185	-1272.56995	1673.06409	-1495.87268	NaN	NaN	NaN	NaN	NaN	NaN	NaN	NaN	NaN	NaN	NaN	NaN	NaN	NaN	NaN	NaN	NaN	NaN	NaN	NaN	NaN	NaN	NaN	NaN	NaN	NaN	NaN	NaN	NaN	NaN	NaN	NaN	NaN
5	0.04	-1173.14929	1613.17871	-1531.53333	-1191.26685	1625.48059	-1400.35791	-1297.87305	1560.98462	-1540.78857	-1310.92468	1573.1123	-1410.98682	-1324.84314	1413.50806	-1485.29236	-1371.2168	1103.58069	-1494.48193	-1207.32446	1331.89465	-1467.88391	-1169.87451	1164.72168	-1475.6084	-1398.49719	1238.86499	-1405.90015	-1221.36853	1375.74951	-1624.85632	-1186.61572	1189.26941	-1704.44788	-1150.026	1072.95764	-1719.02344	-1083.60266	962.88892	-1705.38269	-1032.31396	860.68964	-1662.36084	-1042.01929	857.35101	-1717.12012	-996.50067	788.97119	-1698.36304	-1275.7749	1350.28625	-1316.30359	-1297.23621	1126.58093	-1250.66467	-1287.05957	1014.00867	-1239.38428	-1271.07727	877.72321	-1241.06213	-1237.57544	784.38763	-1276.91858	-1273.95349	777.13245	-1237.51245	-1248.86511	707.73309	-1246.98462	-1204.78638	935.78284	-1604.00684	-1216.24255	931.02319	-1364.08362	-1367.94556	964.7016	-1559.20374	-1374.84595	961.90881	-1410.80017	-1292.19446	639.06873	-1638.93445	-1317.99158	463.11624	-1599.82605	-1397.63794	282.61252	-1603.60242	-1449.25061	77.52486	-1561.89551	-1492.84253	44.05306	-1526.15027	-1299.26221	35.12333	-1537.53943	-1208.3595	640.05957	-1318.84937	-1124.08325	481.46237	-1356.66956	-1130.55688	293.79889	-1352.31726	-1114.11682	77.56699	-1394.60632	-1150.82166	41.07635	-1449.00049	-972.93195	53.43042	-1407.26428	-1265.01831	1671.61731	-1496.27954	NaN	NaN	NaN	NaN	NaN	NaN	NaN	NaN	NaN	NaN	NaN	NaN	NaN	NaN	NaN	NaN	NaN	NaN	NaN	NaN	NaN	NaN	NaN	NaN	NaN	NaN	NaN	NaN	NaN	NaN	NaN	NaN	NaN
6	0.05	-1165.43713	1611.91772	-1531.85046	-1183.46777	1624.4375	-1400.74365	-1289.99182	1559.41797	-1540.65662	-1302.87183	1571.73584	-1411.0083	-1316.79321	1412.30176	-1485.04248	-1363.89624	1102.6178	-1494.12231	-1199.40613	1330.6217	-1467.99878	-1162.60522	1163.43518	-1475.85376	-1390.7002	1237.94067	-1405.60181	-1213.6908	1374.39856	-1624.83813	-1178.98682	1187.99231	-1704.26917	-1142.3252	1071.70288	-1718.64124	-1075.21289	962.07391	-1704.46423	-1023.18671	860.57043	-1660.85901	-1032.74548	856.71161	-1715.52185	-986.89673	788.86969	-1696.39319	-1267.56628	1349.13306	-1316.18408	-1289.57751	1125.37854	-1251.22888	-1279.93982	1012.65179	-1240.30408	-1264.32751	876.17206	-1242.72375	-1231.27271	783.20215	-1278.67468	-1267.65503	775.68127	-1239.18018	-1242.57544	706.22638	-1248.88708	-1197.80908	934.76196	-1604.45911	-1208.53271	929.5683	-1364.18481	-1360.828	963.48334	-1558.82117	-1367.21545	960.53979	-1410.44324	-1286.7063	638.33429	-1639.00122	-1313.8147	462.51471	-1600.1178	-1395.48718	282.74872	-1603.75195	-1448.94446	78.0201	-1561.8772	-1492.73328	45.09009	-1526.10693	-1299.20203	34.93225	-1537.53235	-1202.38159	638.41754	-1318.84204	-1117.31641	480.06372	-1357.02429	-1117.5835	293.05786	-1352.21533	-1092.55579	77.52557	-1393.8114	-1127.85413	40.38726	-1448.50659	-950.24884	55.95693	-1406.20642	-1257.422	1670.22266	-1496.58203	NaN	NaN	NaN	NaN	NaN	NaN	NaN	NaN	NaN	NaN	NaN	NaN	NaN	NaN	NaN	NaN	NaN	NaN	NaN	NaN	NaN	NaN	NaN	NaN	NaN	NaN	NaN	NaN	NaN	NaN	NaN	NaN	NaN
